<svg xmlns="http://www.w3.org/2000/svg" viewBox="0 0 18 18"><g fill="#0034FF"><path d="M3.9 7.5L1.7 9.6c-.9.9-1.4 2.1-1.4 3.3s.5 2.4 1.4 3.3c.9.9 2.1 1.4 3.3 1.4 1.2 0 2.4-.5 3.3-1.4l2.9-2.9c.5-.5.9-1.2 1.2-1.9.2-.7.3-1.5.2-2.2-.1-.7-.4-1.4-.9-2-.5-.6-1-1.1-1.7-1.4l-1 1c-.1.1-.2.2-.2.3.5.2 1 .4 1.4.8.4.4.7.9.8 1.4.1.5.1 1.1 0 1.6s-.4 1-.8 1.4l-2.9 2.9c-.6.6-1.4.9-2.2.9-.8 0-1.6-.3-2.2-.9-.6-.6-.9-1.4-.9-2.2 0-.8.3-1.6.9-2.2l1.2-1.2c-.2-.7-.3-1.4-.2-2.1z"/><path d="M6.8 4.6c-.5.5-.9 1.2-1.2 1.9-.2.7-.2 1.4-.1 2.2.1.7.4 1.4.9 2 .5.6 1 1.1 1.7 1.4l1.2-1.2c-.5-.1-1-.4-1.4-.8-.4-.4-.7-.9-.8-1.4s-.1-1.1 0-1.6.4-1 .8-1.4l2.9-2.9c.6-.6 1.4-.9 2.2-.9.8 0 1.6.3 2.2.9.6.6.9 1.4.9 2.2 0 .8-.3 1.6-.9 2.2L14 8.4c.2.7.2 1.3.2 2l2.1-2.1c.9-.9 1.4-2.1 1.4-3.3s-.5-2.4-1.4-3.3C15.4.8 14.2.3 13 .3s-2.4.5-3.3 1.4L6.8 4.6z"/></g></svg>