<svg width="510" height="500" viewBox="0 0 510 500" fill="none" xmlns="http://www.w3.org/2000/svg">
<path d="M510 27.6574L486.36 0L11.3863 89.1856L0 122.286L323.318 499.318L357.152 492.445L510 27.6574Z" fill="#E6EBEF"/>
<path d="M151.048 283.535V264.152H98.9102V245.829L136.583 166.263H159.056L121.383 245.829H151.048V215.289H170.987V245.829H182.02V264.152H170.987V283.535H151.048Z" fill="white"/>
<path d="M243.947 285.978C235.612 285.978 228.257 284.213 221.883 280.684C215.508 277.101 210.524 272.133 206.928 265.781C203.387 259.429 201.616 252.099 201.616 243.793V206.005C201.616 197.699 203.387 190.369 206.928 184.017C210.524 177.665 215.508 172.724 221.883 169.195C228.257 165.612 235.612 163.82 243.947 163.82C252.283 163.82 259.61 165.612 265.93 169.195C272.304 172.724 277.289 177.665 280.885 184.017C284.48 190.369 286.278 197.699 286.278 206.005V243.793C286.278 252.099 284.48 259.429 280.885 265.781C277.289 272.133 272.304 277.101 265.93 280.684C259.61 284.213 252.283 285.978 243.947 285.978ZM243.947 267.328C248.088 267.328 251.847 266.351 255.225 264.397C258.602 262.388 261.272 259.727 263.233 256.416C265.194 253.049 266.175 249.303 266.175 245.177V204.539C266.175 200.359 265.194 196.613 263.233 193.301C261.272 189.935 258.602 187.275 255.225 185.32C251.847 183.311 248.088 182.307 243.947 182.307C239.807 182.307 236.047 183.311 232.67 185.32C229.292 187.275 226.622 189.935 224.661 193.301C222.7 196.613 221.719 200.359 221.719 204.539V245.177C221.719 249.303 222.7 253.049 224.661 256.416C226.622 259.727 229.292 262.388 232.67 264.397C236.047 266.351 239.807 267.328 243.947 267.328Z" fill="white"/>
<path d="M358.062 283.535V264.152H305.924V245.829L343.597 166.263H366.07L328.397 245.829H358.062V215.289H378.002V245.829H389.034V264.152H378.002V283.535H358.062Z" fill="white"/>
</svg>
