<svg width="80" height="80" fill="none" xmlns="http://www.w3.org/2000/svg"><path fill-rule="evenodd" clip-rule="evenodd" d="M57 23h20v21h-4.555V27.783H57V23z" fill="#0034FF"/><path fill-rule="evenodd" clip-rule="evenodd" d="M75 29.074l-26.86 26.58a3.649 3.649 0 01-5.122 0L31.07 43.83c-.707-.7-1.853-.7-2.56 0L6.106 66 3 62.926 27.229 38.95a3.649 3.649 0 015.122 0l11.947 11.823c.707.7 1.854.7 2.561 0L71.893 26 75 29.074z" fill="#0034FF"/><path d="M3 29.63v-3.29h10.43c.165 0 .365-.005.6-.016.247-.021.519-.074.816-.16.851-.244 1.467-.686 1.846-1.325.38-.65.57-1.406.57-2.268 0-.522-.077-1.044-.231-1.565a3.435 3.435 0 00-.754-1.406c-.349-.405-.826-.687-1.43-.847a3.516 3.516 0 00-.816-.127 16.35 16.35 0 00-.6-.016h-5.8V15h5.954c.112 0 .333.005.661.016.339.01.713.048 1.123.112 1.272.202 2.323.644 3.154 1.325a6.054 6.054 0 011.862 2.588c.41 1.033.615 2.172.615 3.418 0 1.906-.467 3.482-1.4 4.728-.933 1.246-2.344 2.018-4.23 2.316a17.9 17.9 0 01-1.124.112c-.328.01-.549.016-.661.016H3zm0 5.24v-3.02h13.123v3.02H3zM5.2 38V15h3.708v23H5.2z" fill="#0034FF"/></svg>