<svg width="80" height="80" viewBox="0 0 80 80" fill="none" xmlns="http://www.w3.org/2000/svg">
<path d="M69.4742 66.7773L51.3048 48.4375C54.927 44.1016 56.7381 39.1016 56.7381 33.4375C56.7381 29.1797 55.6962 25.2539 53.6125 21.6602C51.5287 18.0664 48.6855 15.2246 45.0828 13.1348C41.48 11.0449 37.5657 10 33.3398 10C29.1139 10 25.2093 11.0449 21.6261 13.1348C18.0428 15.2246 15.2093 18.0664 13.1256 21.6602C11.0419 25.2539 10 29.1797 10 33.4375C10 37.6953 11.0419 41.6211 13.1256 45.2148C15.2093 48.8086 18.0428 51.6504 21.6261 53.7402C25.2093 55.8301 29.1237 56.875 33.369 56.875C39.1723 56.875 44.2746 54.9609 48.6758 51.1328L66.7868 69.4141C67.1762 69.8047 67.6241 70 68.1305 70C68.6368 70 69.075 69.8145 69.445 69.4434C69.815 69.0723 70 68.623 70 68.0957C70 67.5684 69.8247 67.1289 69.4742 66.7773ZM33.369 53.1836C29.7858 53.1836 26.4849 52.2949 23.4664 50.5176C20.4479 48.7402 18.0623 46.3379 16.3096 43.3105C14.557 40.2832 13.6806 36.9922 13.6806 33.4375C13.6806 29.8828 14.557 26.5918 16.3096 23.5645C18.0623 20.5371 20.4479 18.1348 23.4664 16.3574C26.4849 14.5801 29.776 13.6914 33.3398 13.6914C36.9036 13.6914 40.1947 14.5801 43.2132 16.3574C46.2317 18.1348 48.6173 20.5371 50.37 23.5645C52.1227 26.5918 52.999 29.8828 52.999 33.4375C52.999 34.9609 52.8238 36.4648 52.4732 37.9492C52.1227 39.4336 51.6261 40.8203 50.9834 42.1094C50.3408 43.3984 49.5716 44.6191 48.6758 45.7715C47.7799 46.9238 46.7673 47.9492 45.6378 48.8477C44.5083 49.7461 43.3009 50.5176 42.0156 51.1621C40.7303 51.8066 39.3476 52.3047 37.8676 52.6562C36.3875 53.0078 34.888 53.1836 33.369 53.1836Z" fill="#0034FF"/>
<path d="M14.0674 43.5592L26.9487 31.0934L35.7623 39.6226L52.7115 23.2202" stroke="#0034FF" stroke-width="2" stroke-linecap="round"/>
<circle cx="26.2716" cy="31.356" r="3.05085" fill="#0034FF"/>
<circle cx="36.4405" cy="39.4918" r="3.05085" fill="#0034FF"/>
</svg>
