<svg width="80" height="80" fill="none" xmlns="http://www.w3.org/2000/svg"><path d="M30 8a14 14 0 110 28 14 14 0 010-28zm0 4a10 10 0 100 20 10 10 0 000-20zm28 24a10 10 0 100-20 10 10 0 000 20zm-6-10a6 6 0 1112 0 6 6 0 01-12 0zm-6.78 14.092A8.102 8.102 0 0044 40H16a8 8 0 00-8 8v6c0 8.216 8.352 14 22 14 2.928 0 5.616-.268 8.024-.768a21.838 21.838 0 01-1.344-3.788A37.398 37.398 0 0130 64c-11.684 0-18-4.372-18-10v-6a4 4 0 014-4h25.028a21.955 21.955 0 014.192-3.908z" fill="#0034FF"/><path fill-rule="evenodd" clip-rule="evenodd" d="M44.082 58a13.918 13.918 0 1027.836 0 13.918 13.918 0 00-27.836 0zm1.19 12.728a18 18 0 1125.455-25.456 18 18 0 01-25.455 25.456z" fill="#0034FF"/><path d="M55.776 66.122v-6.788h-6.797v-3.585h6.797v-6.77h3.588v6.77h6.758v3.584h-6.758v6.79h-3.588z" fill="#0034FF"/></svg>