<svg width="80" height="80" viewBox="0 0 80 80" fill="none" xmlns="http://www.w3.org/2000/svg">
<path d="M20.5925 24.9472C20.2252 25.1073 19.9128 25.373 19.6944 25.7111C19.4759 26.0492 19.3611 26.4447 19.3643 26.8482V49.7648C19.3643 50.1678 19.4802 50.5622 19.698 50.9001C19.9157 51.238 20.226 51.505 20.5912 51.6687L39.1849 60.002C39.4491 60.1207 39.7352 60.1819 40.0244 60.1817C40.3136 60.1814 40.5996 60.1196 40.8635 60.0004V60.002L59.4572 51.6687C59.8223 51.5049 60.1325 51.2379 60.3502 50.9C60.5679 50.5621 60.6837 50.1678 60.6836 49.7648V26.8482C60.6868 26.4447 60.572 26.0492 60.3536 25.7111C60.1351 25.373 59.8227 25.1073 59.4554 24.9472V24.9443L40.8617 16.6111C40.5975 16.4928 40.3115 16.4316 40.0224 16.4316C39.7333 16.4316 39.4474 16.4928 39.1831 16.6111L20.5894 24.9443L20.5925 24.9472ZM37.958 54.8924L23.4963 48.4106V30.054L37.958 36.5357V54.8924ZM56.5517 48.4106L42.0899 54.8924V36.5357L56.5517 30.0542V48.4106ZM40.024 20.7946L53.5302 26.8482L40.024 32.9016L26.5177 26.8482L40.024 20.7946Z" fill="#0034FF"/>
<path d="M37.958 66.4321H42.0899V76.8487H37.958V66.4321Z" fill="#0034FF"/>
<path d="M37.958 1.84863H42.0899V12.2653H37.958V1.84863Z" fill="#0034FF"/>
<path d="M4.00098 22.4912L5.78186 18.7329L14.4297 22.8997L12.6488 26.658L4.00098 22.4912Z" fill="#0034FF"/>
<path d="M65.5713 22.8701L74.219 18.703L75.9998 22.4614L67.3521 26.6285L65.5713 22.8701Z" fill="#0034FF"/>
<path d="M4 56.196L12.6478 52.0292L14.4287 55.7875L5.78089 59.9543L4 56.196Z" fill="#0034FF"/>
<path d="M75.7803 56.1484L67.1324 51.9816L65.3516 55.7399L73.9994 59.9067L75.7803 56.1484Z" fill="#0034FF"/>
</svg>
