<svg version="1.0" xmlns="http://www.w3.org/2000/svg" width="933.333" height="933.333" viewBox="0 0 700 700"><path d="M559.5 34.1c-56.1 10.4-200.7 37.2-321.4 59.4-120.7 22.3-219.8 40.8-220.2 41.2-.3.5-3.8 10.4-7.8 22.2-5.8 17.6-6.8 21.7-5.8 23 2.3 3 433 499.6 435.6 502.4l2.7 2.8L465 680c12.4-2.8 22.8-5.4 23.2-5.8.4-.4 47.3-139.8 104.2-309.7 56.9-170 103.8-309.7 104.1-310.6.8-2-30.7-38.3-33.3-38.6-1 0-47.6 8.4-103.7 18.8zM369.9 298.2C392.3 368.5 410.7 426 411 426c.3 0 18.5-57.6 40.5-128l39.9-128h25.3c13.9 0 25.3.1 25.3.2 0 .2-23.1 67.8-51.3 150.3l-51.3 150-29 .3-29 .2-46.9-135.2c-25.7-74.4-49.2-142.2-52.1-150.6L277 170l26.2.2 26.2.3 40.5 127.7z"/></svg>