<svg width="65" height="65" fill="none" xmlns="http://www.w3.org/2000/svg"><path d="M13 0C7.623.001 3.25 4.374 3.25 9.75c0 5.377 4.373 9.75 9.75 9.75 5.376 0 9.75-4.374 9.75-9.75C22.75 4.373 18.375 0 13 0zm0 16.25a6.5 6.5 0 110-12.999 6.5 6.5 0 110 13zm48.749 0h-32.5A3.25 3.25 0 0026 19.5v2.481l3.25 1.625V19.5h32.499v25.999h-32.5v-3.863L26 40.823v4.675a3.25 3.25 0 003.25 3.25h13.38l-8.273 13.789a1.621 1.621 0 00.559 2.228 1.618 1.618 0 002.228-.559l6.73-11.219v10.384a1.624 1.624 0 103.25 0V52.987l6.732 11.218a1.624 1.624 0 102.787-1.67l-8.274-13.79h13.38a3.25 3.25 0 003.25-3.25V19.5a3.25 3.25 0 00-3.25-3.25z" fill="#0034FF"/><path d="M56.81 25.552a1.612 1.612 0 00-2.009-1.114l-20.053 5.73a3.246 3.246 0 00-.795-.575l-13-6.5a3.256 3.256 0 00-1.453-.343h-13a3.25 3.25 0 00-3.198 2.668L.052 43.29a3.25 3.25 0 003.198 3.832h2.077l1.184 14.88a3.249 3.249 0 003.24 2.993h6.499a3.25 3.25 0 003.23-2.89l2.84-25.552 9.392 2.347a3.25 3.25 0 004.037-3.154V33.26l19.947-5.7a1.621 1.621 0 001.114-2.008zM32.5 35.749l-13-3.25-3.25 29.248h-6.5L8.33 43.873H3.25L6.5 25.999h4.875v9.887a1.624 1.624 0 103.25 0v-9.887H19.5l13 6.5v3.25z" fill="#0034FF"/></svg>