<svg width="65" height="65" fill="none" xmlns="http://www.w3.org/2000/svg"><g clip-path="url(#clip0)" fill="#0034FF"><path d="M19.5 0c-5.377 0-9.75 4.373-9.75 9.75s4.375 9.75 9.75 9.75c5.377 0 9.75-4.373 9.75-9.75S24.877 0 19.5 0zm0 16.25a6.5 6.5 0 110-13 6.5 6.5 0 010 13zm9.002 27.625H24.17L22.749 61.75h-6.5l-1.421-17.875H9.749L13 26h4.876v9.886a1.624 1.624 0 103.25 0V26h1.918c.189-1.12.472-2.203.844-3.25H12.999a3.249 3.249 0 00-3.197 2.67l-3.25 17.874a3.25 3.25 0 003.197 3.83h2.077l1.184 14.884A3.25 3.25 0 0016.25 65h6.5a3.25 3.25 0 003.24-2.992l1.183-14.883h2.076c.307 0 .588-.112.877-.195-.403-1.124-.955-2.077-1.624-3.055z"/><path d="M42.25 13C33.29 13 26 20.29 26 29.25c0 5.575 2.253 8.697 4.24 11.45 2.084 2.889 3.885 5.384 3.885 11.3v9.75a3.25 3.25 0 003.25 3.25h9.75a3.25 3.25 0 003.25-3.25V52c0-5.916 1.8-8.411 3.885-11.3 1.988-2.753 4.24-5.875 4.24-11.45C58.5 20.29 51.21 13 42.25 13zm4.875 48.75h-9.75v-8.125h9.75v8.125zm.065-11.375h-3.315V36.423l6.024-6.025a1.624 1.624 0 10-2.297-2.297l-5.352 5.351-5.35-5.35a1.624 1.624 0 10-2.298 2.297l6.024 6.025v13.951h-3.315c-.658-11.364-8.061-11.807-8.061-21.125 0-7.18 5.82-13 13-13s13 5.82 13 13c0 9.318-7.402 9.76-8.06 21.125z"/></g><defs><clipPath id="clip0"><path fill="#fff" d="M0 0h65v65H0z"/></clipPath></defs></svg>