<svg width="65" height="65" fill="none" xmlns="http://www.w3.org/2000/svg"><g clip-path="url(#clip0)" fill="#0034FF"><path d="M48.75 0C43.373 0 39 4.373 39 9.75s4.373 9.75 9.75 9.75 9.75-4.373 9.75-9.75S54.127 0 48.75 0zm0 16.25a6.5 6.5 0 110-13 6.5 6.5 0 010 13zm13 25.025h-.419l-2.883-15.856a3.25 3.25 0 00-3.198-2.669h-13a3.252 3.252 0 00-3.198 2.67l-3.25 17.874a3.25 3.25 0 003.199 3.83h2.076l1.184 14.884A3.25 3.25 0 0045.501 65H52a3.249 3.249 0 003.239-2.992l.538-6.758h5.972A3.25 3.25 0 0065 52v-7.475a3.25 3.25 0 00-3.25-3.25zM52 61.75h-6.5l-1.422-17.875H39L42.25 26h4.875v9.886a1.624 1.624 0 103.25 0V26h4.875l2.777 15.275H51.35a3.25 3.25 0 00-3.25 3.25V52a3.25 3.25 0 003.25 3.25h1.167L52 61.75zM61.75 52h-10.4v-7.475h10.4V52z"/><path d="M34.125 13.206V6.5c0-.898-.727-1.625-1.625-1.625h-8.125c-.898 0-1.625.727-1.625 1.625a3.252 3.252 0 01-3.25 3.25 3.252 3.252 0 01-3.25-3.25c0-.898-.727-1.625-1.625-1.625H6.5c-.898 0-1.625.727-1.625 1.625v6.706C2.075 13.93 0 16.476 0 19.5c0 3.025 2.076 5.57 4.875 6.294v14.831c0 .898.727 1.625 1.625 1.625a3.252 3.252 0 013.25 3.25 3.252 3.252 0 01-3.25 3.25c-.898 0-1.625.727-1.625 1.625V58.5c0 .898.727 1.625 1.625 1.625h6.706c.723 2.8 3.27 4.875 6.294 4.875 3.025 0 5.57-2.076 6.294-4.875H32.5c.898 0 1.625-.727 1.625-1.625v-8.125c0-.898-.727-1.625-1.625-1.625a3.252 3.252 0 01-3.25-3.25 3.252 3.252 0 013.25-3.25c.898 0 1.625-.727 1.625-1.625v-14.83C36.925 25.07 39 22.524 39 19.5s-2.076-5.57-4.875-6.294zm-3.25 26c-2.8.723-4.875 3.27-4.875 6.294 0 3.025 2.076 5.57 4.875 6.294v5.081h-6.5c-.898 0-1.625.727-1.625 1.625a3.252 3.252 0 01-3.25 3.25 3.252 3.252 0 01-3.25-3.25c0-.898-.727-1.625-1.625-1.625h-6.5v-5.08C10.925 51.07 13 48.524 13 45.5s-2.076-5.57-4.875-6.294v-5.081h6.5c.898 0 1.625-.727 1.625-1.625a3.252 3.252 0 013.25-3.25 3.252 3.252 0 013.25 3.25c0 .898.727 1.625 1.625 1.625h6.5v5.08zM32.5 22.75c-.898 0-1.625.727-1.625 1.625v6.5h-5.08C25.07 28.075 22.524 26 19.5 26s-5.57 2.076-6.294 4.875H8.125v-6.5c0-.898-.727-1.625-1.625-1.625a3.252 3.252 0 01-3.25-3.25 3.252 3.252 0 013.25-3.25c.898 0 1.625-.727 1.625-1.625v-6.5h5.08C13.93 10.925 16.476 13 19.5 13s5.57-2.076 6.294-4.875h5.081v6.5c0 .898.727 1.625 1.625 1.625a3.252 3.252 0 013.25 3.25 3.252 3.252 0 01-3.25 3.25z"/></g><defs><clipPath id="clip0"><path fill="#fff" d="M0 0h65v65H0z"/></clipPath></defs></svg>