<svg width="140" height="45" fill="none" xmlns="http://www.w3.org/2000/svg"><path clip-rule="evenodd" d="M44.357-.04l2.156 2.488-13.94 41.8-3.086.619L0 10.958l1.038-2.977 43.32-8.02zM35.135 9.99l-6.879 20.107h-3.902L17.362 9.989h3.516l5.464 17.238 5.39-17.238h3.403z"/><path d="M43.58 19.87c.026.009.05.024.075.039.762.37 1.672.692 2.74.974 3.975 1.068 5.009 1.835 5.009 4.05 0 1.874-1.795 3.135-4.47 3.135-2.097 0-5.321-1.8-5.321-1.8s-.965 2.646-.984 2.63c1.612 1.06 3.669 1.766 6.379 1.766 4.05 0 7.759-1.948 7.759-6.038 0-3.516-2.37-5.123-6.612-6.23-1.657-.44-2.774-.846-3.476-1.36-.02-.015-.045-.03-.065-.05 0 .005-.998 2.938-1.033 2.883zm92.869 6.442V1.617l-3.209.38v24.35c0 2.868 1.414 4.322 3.862 4.322a6.52 6.52 0 002.828-.648l-.84-2.255c-.381.154-.801.228-1.301.228-.994 0-1.34-.574-1.34-1.681zm-18.574 1.91c-2.408 0-3.669-1.34-3.669-3.784 0-2.868 1.988-4.282 5.736-4.282h2.869v4.777c-1.153 2.18-2.76 3.288-4.936 3.288zm8.14-2.636v-9.327c0-4.168-2.181-6.611-6.958-6.611-2.215 0-4.396.46-6.804 1.374l.801 2.37c2.062-.728 3.902-1.109 5.43-1.109 2.902 0 4.317 1.148 4.317 4.13v1.567h-3.289c-5.504 0-8.713 2.33-8.713 6.612 0 3.595 2.369 6.077 6.345 6.077 2.482 0 4.623-.954 6.037-3.096.534 2.028 1.795 2.83 3.744 3.096l.766-2.255c-1.063-.38-1.676-.954-1.676-2.828zM99.678 9.643c-2.715 0-4.817 1.414-6.305 3.476l-.267-3.021H90.35v20.106h3.21v-14.33c1.374-2.216 2.981-3.71 5.35-3.71 2.062 0 3.323.995 3.323 4.09v13.95h3.209V15.8c.01-3.822-2.091-6.156-5.765-6.156zM76.48 11.977c2.982 0 4.47 1.642 4.47 4.623 0 2.982-1.527 4.703-4.395 4.703-2.83 0-4.436-1.874-4.436-4.703 0-2.675 1.493-4.623 4.361-4.623zm10.054-1.068l-.955-2.943C83.324 9 81.564 9.761 76.48 9.648c-4.435 0-7.645 2.868-7.645 6.957 0 2.636 1.068 4.397 3.363 5.618-1.414.92-2.18 2.18-2.18 3.516 0 1.988 1.606 3.748 5.122 3.748h3.175c2.601 0 4.169.994 4.169 2.982 0 2.102-1.568 3.289-6.004 3.289-4.51 0-5.657-1.074-5.657-3.477h-2.907c0 4.05 2.101 6.004 8.564 6.004 6.157 0 9.252-2.181 9.252-6.038 0-3.136-2.675-5.465-6.764-5.465h-3.21c-2.14 0-2.754-.766-2.754-1.72 0-.802.42-1.529 1.108-1.989.8.268 1.641.381 2.561.381 4.737 0 7.566-2.828 7.566-6.765 0-2.447-1.187-4.129-3.516-5.157 2.33-.05 4.204-.129 5.81-.623zm-23.356-.806h-3.21v20.106h3.21V10.103zm-17.03 2.26a6.196 6.196 0 011.433-.154c1.914 0 3.442.574 5.198 1.874l1.414-2.14c-1.909-1.455-3.976-2.295-6.725-2.295-.139 0-.272.005-.406.01 0-.005-.91 2.705-.915 2.705z"/></svg>