<svg width="510" height="500" fill="none" xmlns="http://www.w3.org/2000/svg"><path d="M510 27.657L486.36 0 11.386 89.186 0 122.286l323.318 377.032 33.834-6.873L510 27.657z" fill="#E6EBEF"/><path d="M151.048 283.535v-19.383H98.91v-18.323l37.673-79.566h22.473l-37.673 79.566h29.665v-30.54h19.939v30.54h11.033v18.323h-11.033v19.383h-19.939zm92.899 2.443c-8.335 0-15.69-1.765-22.064-5.294-6.375-3.583-11.359-8.551-14.955-14.903-3.541-6.352-5.312-13.682-5.312-21.988v-37.788c0-8.306 1.771-15.636 5.312-21.988 3.596-6.352 8.58-11.293 14.955-14.822 6.374-3.583 13.729-5.375 22.064-5.375 8.336 0 15.663 1.792 21.983 5.375 6.374 3.529 11.359 8.47 14.955 14.822 3.595 6.352 5.393 13.682 5.393 21.988v37.788c0 8.306-1.798 15.636-5.393 21.988-3.596 6.352-8.581 11.32-14.955 14.903-6.32 3.529-13.647 5.294-21.983 5.294zm0-18.65c4.141 0 7.9-.977 11.278-2.931 3.377-2.009 6.047-4.67 8.008-7.981 1.961-3.367 2.942-7.113 2.942-11.239v-40.638c0-4.18-.981-7.926-2.942-11.238-1.961-3.366-4.631-6.026-8.008-7.981-3.378-2.009-7.137-3.013-11.278-3.013-4.14 0-7.9 1.004-11.277 3.013-3.378 1.955-6.048 4.615-8.009 7.981-1.961 3.312-2.942 7.058-2.942 11.238v40.638c0 4.126.981 7.872 2.942 11.239 1.961 3.311 4.631 5.972 8.009 7.981 3.377 1.954 7.137 2.931 11.277 2.931zm114.115 16.207v-19.383h-52.138v-18.323l37.673-79.566h22.473l-37.673 79.566h29.665v-30.54h19.94v30.54h11.032v18.323h-11.032v19.383h-19.94z" fill="#fff"/></svg>